<svg xmlns="http://www.w3.org/2000/svg" viewBox="0 0 1600 900">
  <defs>
    <linearGradient id="sky" x1="0" y1="0" x2="0" y2="1">
      <stop offset="0" stop-color="#f8c57a"/>
      <stop offset="0.38" stop-color="#de9648"/>
      <stop offset="1" stop-color="#15382c"/>
    </linearGradient>
    <radialGradient id="glow" cx="0.72" cy="0.24" r="0.42">
      <stop offset="0" stop-color="#ffefbe" stop-opacity="0.95"/>
      <stop offset="1" stop-color="#ffefbe" stop-opacity="0"/>
    </radialGradient>
  </defs>
  <rect width="1600" height="900" fill="url(#sky)"/>
  <rect width="1600" height="900" fill="url(#glow)"/>
  <rect y="610" width="1600" height="290" fill="#204a37"/>
  <rect x="550" y="520" width="520" height="250" fill="#8f5d38" opacity="0.9"/>
  <g fill="#ffffff" opacity="0.22">
    <rect x="80" y="120" width="300" height="3"/>
    <rect x="1220" y="150" width="270" height="3"/>
  </g>
  <g fill="#f5f5f5" opacity="0.94">
    <circle cx="980" cy="402" r="58"/>
    <rect x="920" y="465" width="122" height="188" rx="38"/>
    <rect x="868" y="500" width="56" height="34" rx="10"/>
    <rect x="1040" y="500" width="56" height="34" rx="10"/>
    <rect x="1008" y="370" width="230" height="24" rx="12" transform="rotate(22 1008 370)" fill="#d7a04d"/>
  </g>
  <g fill="#ececec" opacity="0.72">
    <circle cx="650" cy="470" r="44"/>
    <rect x="612" y="512" width="78" height="124" rx="22"/>
    <circle cx="1200" cy="495" r="40"/>
    <rect x="1166" y="535" width="68" height="110" rx="20"/>
  </g>
</svg>
